<?xml version="1.0" encoding="UTF-8" standalone="no"?>
<svg
   xmlns:dc="http://purl.org/dc/elements/1.1/"
   xmlns:cc="http://creativecommons.org/ns#"
   xmlns:rdf="http://www.w3.org/1999/02/22-rdf-syntax-ns#"
   xmlns:svg="http://www.w3.org/2000/svg"
   xmlns="http://www.w3.org/2000/svg"
   xmlns:sodipodi="http://sodipodi.sourceforge.net/DTD/sodipodi-0.dtd"
   xmlns:inkscape="http://www.inkscape.org/namespaces/inkscape"
   version="1.1"
   id="svg12"
   sodipodi:docname="cielo-logo.svg"
   width="700"
   height="700"
   style="fill:none"
   inkscape:export-filename="C:\Users\alex\sites\cielo-logo-0.png"
   inkscape:export-xdpi="561.73999"
   inkscape:export-ydpi="561.73999"
   inkscape:version="0.92.1 r15371">
  <metadata
     id="metadata18">
    <rdf:RDF>
      <cc:Work
         rdf:about="">
        <dc:format>image/svg+xml</dc:format>
        <dc:type
           rdf:resource="http://purl.org/dc/dcmitype/StillImage" />
        <dc:title></dc:title>
      </cc:Work>
    </rdf:RDF>
  </metadata>
  <defs
     id="defs16" />
  <sodipodi:namedview
     pagecolor="#ffffff"
     bordercolor="#666666"
     borderopacity="1"
     objecttolerance="10"
     gridtolerance="10"
     guidetolerance="10"
     inkscape:pageopacity="0"
     inkscape:pageshadow="2"
     inkscape:window-width="1600"
     inkscape:window-height="838"
     id="namedview14"
     showgrid="false"
     inkscape:zoom="0.295"
     inkscape:cx="285.96965"
     inkscape:cy="552.03625"
     inkscape:window-x="-8"
     inkscape:window-y="-8"
     inkscape:window-maximized="1"
     inkscape:current-layer="svg12" />
  <path
     d="m 448.81815,253.10718 a 13.726257,13.726257 0 0 0 -9.70912,4.02973 c -2.51858,2.51858 -4.02973,6.07607 -4.02973,9.72801 v 166.05623 c 0,3.65194 1.44819,7.14647 4.02973,9.72801 a 13.726257,13.726257 0 0 0 19.42454,0 c 2.51858,-2.51858 4.02973,-6.07607 4.02973,-9.72801 V 266.85862 c 0,-3.65194 -1.44818,-7.14646 -4.02973,-9.72801 a 13.726257,13.726257 0 0 0 -9.71542,-4.02973 z m -209.30653,58.53178 c 0,-7.59351 -6.15163,-13.75144 -13.72626,-13.75144 -7.57462,0 -13.72625,6.15793 -13.72625,13.75144 v 121.2696 c 0,7.59351 6.15163,13.75144 13.72625,13.75144 7.57463,0 13.72626,-6.15793 13.72626,-13.75144 z"
     id="path2"
     inkscape:connector-curvature="0"
     style="fill:#5a646e;stroke-width:6.29644823"
     inkscape:export-filename="C:\Users\alex\sites\cielo-logo-4.png"
     inkscape:export-xdpi="66.287422"
     inkscape:export-ydpi="66.287422" />
  <path
     d="m 243.39023,266.88381 a 17.630055,17.630055 0 0 1 -5.27642,12.2403 c -3.29304,3.23007 -7.71945,5.03715 -12.32845,5.03715 -4.609,0 -9.0354,-1.81337 -12.32844,-5.03715 a 17.630055,17.630055 0 0 1 -5.27643,-12.2403 17.630055,17.630055 0 0 1 5.1568,-12.46697 c 3.29304,-3.30563 7.76352,-5.16309 12.44178,-5.16309 4.67826,0 9.14874,1.85746 12.44808,5.16309 a 17.630055,17.630055 0 0 1 5.15679,12.46697 z"
     id="path4"
     inkscape:connector-curvature="0"
     style="fill:#00aeef;stroke-width:6.29644823"
     inkscape:export-filename="C:\Users\alex\sites\cielo-logo-4.png"
     inkscape:export-xdpi="66.287422"
     inkscape:export-ydpi="66.287422" />
  <path
     d="m 410.2587,341.77377 c -13.19735,-29.88295 -44.42144,-51.00124 -80.04674,-47.3493 a 78.201887,78.201887 0 0 0 -33.75526,11.78696 78.327816,78.327816 0 0 0 -24.9969,25.58876 78.453745,78.453745 0 0 0 -11.02508,34.05119 c -1.00743,12.0514 0.79335,24.17836 5.24494,35.41123 a 78.39078,78.39078 0 0 0 20.41938,29.37923 78.327816,78.327816 0 0 0 31.33742,17.22708 c 11.62954,3.24896 23.92651,3.75268 35.71975,1.47966 11.79325,-2.27301 23.03241,-7.2598 32.64709,-14.57627 a 13.663293,13.663293 0 0 0 3.85972,-4.64049 c 0.92558,-1.81337 1.43559,-3.81564 1.48596,-5.85569 a 13.663293,13.663293 0 0 0 -13.24143,-14.04738 13.600328,13.600328 0 0 0 -8.63872,2.74525 50.371586,50.371586 0 0 1 -33.3334,10.43951 c -9.7595,-0.50371 -19.17898,-3.79676 -27.07473,-9.47615 a 51.441982,51.441982 0 0 1 -17.81265,-22.58536 5.351981,5.351981 0 0 1 2.41154,-6.7372 5.2890165,5.2890165 0 0 1 2.50599,-0.62965 h 95.3597 c 3.04748,0.0126 6.06978,-0.57927 8.89059,-1.73782 2.82081,-1.15854 5.38346,-2.86488 7.54314,-5.01826 2.15969,-2.15339 3.87862,-4.70975 5.04976,-7.53056 a 23.233894,23.233894 0 0 0 1.78189,-8.89058 c -0.18889,-6.54831 -1.63708,-13.00846 -4.24381,-19.01528 z m -71.93692,-20.47605 a 51.001231,51.001231 0 0 1 28.62995,8.80243 51.064195,51.064195 0 0 1 18.76342,23.37871 5.4149455,5.4149455 0 0 1 0.3463,2.55006 5.351981,5.351981 0 0 1 -2.79562,4.13677 c -0.76817,0.40927 -1.62448,0.62965 -2.49339,0.62965 h -84.90761 a 5.226052,5.226052 0 0 1 -2.49339,-0.62965 c -0.76817,-0.41557 -1.423,-1.00743 -1.91412,-1.71893 -0.49112,-0.7115 -0.79335,-1.54893 -0.8815,-2.41784 a 5.4149455,5.4149455 0 0 1 0.3463,-2.55006 51.064195,51.064195 0 0 1 18.76342,-23.37871 c 8.44983,-5.6668 18.4234,-8.80243 28.62995,-8.80243 z m 223.03909,102.16616 a 50.938266,50.938266 0 0 1 -27.59733,-8.11612 c -8.22946,-5.30161 -14.76518,-12.86364 -18.88935,-21.78571 a 51.12716,51.12716 0 0 1 7.93353,-54.69724 l -20.77828,-17.7371 a 78.138922,78.138922 0 0 0 -15.04851,26.67805 78.453745,78.453745 0 0 0 -3.68343,30.41814 c 0.78076,10.2821 3.58898,20.31235 8.18539,29.51146 a 78.327816,78.327816 0 0 0 18.92082,24.08391 c 7.82649,6.70572 16.89967,11.79325 26.69694,14.98555 a 78.075958,78.075958 0 0 0 30.39296,3.58897 c 10.26321,-0.81853 20.27456,-3.66453 29.44219,-8.37427 a 78.264851,78.264851 0 0 0 23.98317,-19.03417 l -20.77828,-17.73079 a 50.875302,50.875302 0 0 1 -17.50412,13.43662 c -6.7498,3.14822 -14.09145,4.7727 -21.53386,4.76641 z"
     id="path6"
     inkscape:connector-curvature="0"
     style="fill:#5a646e;stroke-width:6.29644823"
     inkscape:export-filename="C:\Users\alex\sites\cielo-logo-4.png"
     inkscape:export-xdpi="66.287422"
     inkscape:export-ydpi="66.287422" />
  <path
     d="m 561.36087,293.95854 c -11.23916,-0.0126 -22.35239,2.40524 -32.55264,7.0835 a 78.075958,78.075958 0 0 0 -26.64657,20.0353 l 20.71532,17.73709 c 8.82762,-10.18135 21.31347,-16.45261 34.7375,-17.44116 13.42403,-0.98854 26.69694,3.35601 36.92867,12.12067 10.23173,8.76465 16.58484,21.21903 17.69302,34.64935 a 51.12716,51.12716 0 0 1 -11.82473,37.06719 l 20.71531,17.7308 c 9.63357,-11.40917 15.82298,-25.33691 17.81895,-40.14615 a 78.453745,78.453745 0 0 0 -6.5609,-43.4392 78.327816,78.327816 0 0 0 -28.8818,-33.07524 c -12.61179,-7.9902 -27.21955,-12.32215 -42.14213,-12.32215 z"
     id="path8"
     inkscape:connector-curvature="0"
     style="fill:#00aeef;stroke-width:6.29644823"
     inkscape:export-filename="C:\Users\alex\sites\cielo-logo-4.png"
     inkscape:export-xdpi="66.287422"
     inkscape:export-ydpi="66.287422" />
  <path
     d="m 186.74738,413.59105 c -2.36746,-2.05264 -5.36457,-3.23637 -8.5002,-3.34971 -3.13563,-0.11333 -6.202,0.85002 -8.70799,2.72637 -7.55574,5.78013 -16.57225,9.33133 -26.03582,10.25061 -9.46356,0.91928 -18.99638,-0.81854 -27.51547,-5.03716 -8.5191,-4.21862 -15.70335,-10.72914 -20.734208,-18.80749 a 51.12716,51.12716 0 0 1 -0.08815,-53.8787 51.064195,51.064195 0 0 1 20.671238,-18.87046 c 8.5128,-4.23751 18.03933,-6.01311 27.50289,-5.12531 9.46356,0.8878 18.49267,4.40752 26.0673,10.16877 a 13.663293,13.663293 0 0 0 17.1956,-0.41557 c 1.54263,-1.32225 2.77043,-2.95933 3.58897,-4.80419 0.81854,-1.84486 1.23411,-3.85972 1.19633,-5.88718 -0.0378,-2.02746 -0.5415,-4.01713 -1.44819,-5.82421 -0.90668,-1.80708 -2.21635,-3.40009 -3.80935,-4.63419 a 78.201887,78.201887 0 0 0 -39.99504,-15.74112 c -14.5448,-1.4104 -29.17774,1.28448 -42.26806,7.77611 -13.090312,6.49164 -24.096504,16.54077 -31.790764,28.96996 -7.694259,12.42919 -11.755468,26.7788 -11.723986,41.39915 0.03148,14.62035 4.136766,28.95107 11.868805,41.35507 7.732038,12.404 18.776008,22.39647 31.885215,28.83773 13.1092,6.44127 27.76733,9.09207 42.29324,7.6376 a 78.201887,78.201887 0 0 0 39.93838,-15.87335 13.474399,13.474399 0 0 0 5.15679,-10.33877 13.474399,13.474399 0 0 0 -4.74123,-10.53396 z"
     id="path10"
     inkscape:connector-curvature="0"
     style="fill:#5a646e;stroke-width:6.29644823;fill-opacity:1"
     inkscape:export-filename="C:\Users\alex\sites\cielo-logo-4.png"
     inkscape:export-xdpi="66.287422"
     inkscape:export-ydpi="66.287422" />
</svg>
