<?xml version="1.0" encoding="iso-8859-1"?>
<!-- Generator: Adobe Illustrator 19.0.0, SVG Export Plug-In . SVG Version: 6.00 Build 0)  -->
<svg version="1.1" id="Capa_1" xmlns="http://www.w3.org/2000/svg" xmlns:xlink="http://www.w3.org/1999/xlink" x="0px" y="0px"
	 viewBox="0 0 512 512" style="enable-background:new 0 0 512 512;" xml:space="preserve">
<path style="fill:#F2F2F2;" d="M242.133,458.667V104.533c0-11.733,9.6-21.333,21.333-21.333h205.867
	c11.733,0,21.333,9.6,21.333,21.333v354.133c0,11.733-9.6,21.333-21.333,21.333H263.467C251.733,480,242.133,470.4,242.133,458.667z
	"/>
<rect x="280.533" y="377.6" style="fill:#ACB3BA;" width="30.933" height="70.4"/>
<rect x="280.533" y="290.133" style="fill:#CDD6E0;" width="30.933" height="70.4"/>
<rect x="280.533" y="201.6" style="fill:#ACB3BA;" width="30.933" height="70.4"/>
<rect x="280.533" y="114.133" style="fill:#CDD6E0;" width="30.933" height="70.4"/>
<rect x="350.933" y="114.133" style="fill:#54C0EB;" width="30.933" height="206.933"/>
<rect x="420.267" y="114.133" style="fill:#84DBFF;" width="30.933" height="154.667"/>
<circle style="fill:#FF7058;" cx="416" cy="412.8" r="35.2"/>
<circle style="fill:#FFD15C;" cx="416" cy="370.133" r="35.2"/>
<path style="fill:#40596B;" d="M305.067,512h-262.4c-11.733,0-21.333-9.6-21.333-21.333V72.533c0-11.733,9.6-21.333,21.333-21.333
	h262.4c11.733,0,21.333,9.6,21.333,21.333v418.133C326.4,502.4,316.8,512,305.067,512z"/>
<rect x="60.8" y="144" style="fill:#54C0EB;" width="226.133" height="93.867"/>
<g>
	<path style="fill:#CDD6E0;" d="M260.267,469.333L260.267,469.333c-14.933,0-27.733-12.8-27.733-27.733l0,0
		c0-14.933,12.8-27.733,27.733-27.733l0,0c14.933,0,27.733,12.8,27.733,27.733l0,0C286.933,456.533,275.2,469.333,260.267,469.333z"
		/>
	<path style="fill:#CDD6E0;" d="M173.867,469.333L173.867,469.333c-14.933,0-27.733-12.8-27.733-27.733l0,0
		c0-14.933,12.8-27.733,27.733-27.733l0,0c14.933,0,27.733,12.8,27.733,27.733l0,0C201.6,456.533,189.867,469.333,173.867,469.333z"
		/>
	<path style="fill:#CDD6E0;" d="M88.533,469.333L88.533,469.333c-14.933,0-27.733-12.8-27.733-27.733l0,0
		c0-14.933,12.8-27.733,27.733-27.733l0,0c14.933,0,27.733,12.8,27.733,27.733l0,0C116.267,456.533,103.467,469.333,88.533,469.333z
		"/>
	<path style="fill:#CDD6E0;" d="M260.267,392.533L260.267,392.533c-14.933,0-27.733-12.8-27.733-27.733l0,0
		c0-14.933,12.8-27.733,27.733-27.733l0,0c14.933,0,27.733,12.8,27.733,27.733l0,0C286.933,379.733,275.2,392.533,260.267,392.533z"
		/>
	<path style="fill:#CDD6E0;" d="M173.867,392.533L173.867,392.533c-14.933,0-27.733-12.8-27.733-27.733l0,0
		c0-14.933,12.8-27.733,27.733-27.733l0,0c14.933,0,27.733,12.8,27.733,27.733l0,0C201.6,379.733,189.867,392.533,173.867,392.533z"
		/>
	<path style="fill:#CDD6E0;" d="M88.533,392.533L88.533,392.533c-14.933,0-27.733-12.8-27.733-27.733l0,0
		c0-14.933,12.8-27.733,27.733-27.733l0,0c14.933,0,27.733,12.8,27.733,27.733l0,0C116.267,379.733,103.467,392.533,88.533,392.533z
		"/>
	<path style="fill:#CDD6E0;" d="M260.267,315.733L260.267,315.733c-14.933,0-27.733-12.8-27.733-27.733l0,0
		c0-14.933,12.8-27.733,27.733-27.733l0,0C275.2,260.267,288,273.067,288,288l0,0C286.933,302.933,275.2,315.733,260.267,315.733z"
		/>
	<path style="fill:#CDD6E0;" d="M173.867,315.733L173.867,315.733c-14.933,0-27.733-12.8-27.733-27.733l0,0
		c0-14.933,12.8-27.733,27.733-27.733l0,0c14.933,0,27.733,12.8,27.733,27.733l0,0C201.6,302.933,189.867,315.733,173.867,315.733z"
		/>
	<path style="fill:#CDD6E0;" d="M88.533,315.733L88.533,315.733C73.6,315.733,60.8,302.933,60.8,288l0,0
		c0-14.933,12.8-27.733,27.733-27.733l0,0c14.933,0,27.733,12.8,27.733,27.733l0,0C116.267,302.933,103.467,315.733,88.533,315.733z
		"/>
</g>
<path style="fill:#334A5E;" d="M279.467,123.733H69.333c-4.267,0-8.533-3.2-8.533-8.533l0,0c0-4.267,3.2-8.533,8.533-8.533h210.133
	c4.267,0,8.533,3.2,8.533,8.533l0,0C286.933,120.533,283.733,123.733,279.467,123.733z"/>
<rect x="75.733" style="fill:#F2F2F2;" width="198.4" height="116.267"/>
<g>
	<rect x="98.133" y="16" style="fill:#CDD6E0;" width="151.467" height="19.2"/>
	<rect x="98.133" y="49.067" style="fill:#CDD6E0;" width="151.467" height="19.2"/>
	<rect x="98.133" y="81.067" style="fill:#CDD6E0;" width="151.467" height="19.2"/>
</g>
<g>
</g>
<g>
</g>
<g>
</g>
<g>
</g>
<g>
</g>
<g>
</g>
<g>
</g>
<g>
</g>
<g>
</g>
<g>
</g>
<g>
</g>
<g>
</g>
<g>
</g>
<g>
</g>
<g>
</g>
</svg>
